<svg width="30" height="35" viewBox="0 0 30 35" fill="none" xmlns="http://www.w3.org/2000/svg">
<path d="M22.0504 0.0175153C21.9746 -0.0656093 19.2419 0.0503276 16.8639 2.58125C14.4859 5.10999 14.8517 8.0106 14.9053 8.08497C14.9588 8.15935 18.296 8.27528 20.4264 5.33311C22.5568 2.39094 22.1263 0.102827 22.0504 0.0175153ZM29.4432 25.6833C29.3361 25.4733 24.2567 22.984 24.7296 18.1977C25.2025 13.4093 28.4661 12.0968 28.5175 11.9546C28.5688 11.8125 27.1857 10.2265 25.7201 9.42372C24.644 8.85771 23.453 8.53343 22.2334 8.47435C21.9924 8.46778 21.1559 8.26654 19.436 8.7281C18.3027 9.03216 15.7485 10.0165 15.0458 10.0559C14.3409 10.0953 12.2439 8.91403 9.98864 8.60122C8.54532 8.32778 7.01501 8.88778 5.9197 9.31872C4.82662 9.74747 2.74754 10.9681 1.29308 14.2121C-0.161389 17.454 0.599306 22.5902 1.14361 24.1871C1.68792 25.7818 2.53785 28.3958 3.98339 30.3033C5.26832 32.4558 6.97263 33.9498 7.68425 34.4573C8.39586 34.9648 10.4036 35.3017 11.7956 34.6039C12.9154 33.9302 14.9365 33.543 15.7351 33.5714C16.5315 33.5998 18.102 33.9083 19.7104 34.7505C20.9841 35.1814 22.1887 35.002 23.3956 34.5208C24.6024 34.0373 26.3491 32.2042 28.3881 28.4877C29.1621 26.7596 29.5146 25.8255 29.4432 25.6833Z" fill="white"/>
<path d="M22.0504 0.0175153C21.9746 -0.0656093 19.2419 0.0503277 16.8639 2.58125C14.4859 5.10999 14.8517 8.0106 14.9053 8.08497C14.9588 8.15935 18.296 8.27529 20.4264 5.33311C22.5568 2.39094 22.1263 0.102827 22.0504 0.0175153ZM29.4432 25.6833C29.3361 25.4733 24.2567 22.984 24.7296 18.1977C25.2025 13.4093 28.4661 12.0968 28.5175 11.9546C28.5688 11.8125 27.1857 10.2265 25.7201 9.42372C24.644 8.85771 23.453 8.53343 22.2334 8.47435C21.9924 8.46778 21.1559 8.26654 19.436 8.7281C18.3027 9.03216 15.7485 10.0165 15.0458 10.0559C14.3409 10.0953 12.2439 8.91403 9.98864 8.60122C8.54532 8.32779 7.01501 8.88778 5.9197 9.31872C4.82662 9.74747 2.74754 10.9681 1.29308 14.2121C-0.161388 17.454 0.599306 22.5902 1.14361 24.1871C1.68792 25.7818 2.53785 28.3958 3.98339 30.3033C5.26832 32.4558 6.97263 33.9498 7.68425 34.4573C8.39586 34.9648 10.4036 35.3017 11.7956 34.6039C12.9154 33.9302 14.9365 33.543 15.7351 33.5714C16.5315 33.5998 18.102 33.9083 19.7104 34.7505C20.9841 35.1814 22.1887 35.002 23.3956 34.5208C24.6024 34.0373 26.3491 32.2042 28.3881 28.4877C29.1621 26.7596 29.5146 25.8255 29.4432 25.6833Z" fill="white"/>
</svg>
