<svg width="55" height="55" viewBox="0 0 55 55" fill="none" xmlns="http://www.w3.org/2000/svg">
<path d="M47.0637 24.4707C45.852 24.4707 38.5172 25.0379 31.5563 25.8328C31.5176 25.8328 31.4789 25.7941 31.5176 25.7555C37.0004 21.407 42.5992 16.6031 43.4328 15.7695C46.1184 13.084 45.1731 11.3437 44.3782 10.5488C43.0547 9.22538 41.1254 9.52617 39.1574 11.4941C38.3239 12.3277 33.5199 17.9223 29.1715 23.4094C29.1328 23.448 29.0942 23.4094 29.0942 23.3707C29.8891 16.4098 30.4563 9.07499 30.4563 7.86327C30.4563 4.04335 28.5656 3.47617 27.4313 3.47617C26.2969 3.47617 24.4063 4.04765 24.4063 7.86757C24.4063 9.07929 24.9735 16.4141 25.7684 23.375C25.7684 23.4137 25.7297 23.4523 25.691 23.4137C21.4543 18.0039 16.6547 12.4051 15.8211 11.5371C13.8145 9.53046 11.9239 9.26835 10.6004 10.5918C9.80549 11.3867 9.57776 12.4437 9.99456 13.5781C10.261 14.2957 10.7895 15.0519 11.5457 15.8082C12.3793 16.6418 17.9739 21.4457 23.461 25.7941C23.4996 25.8328 23.461 25.8715 23.4223 25.8715C16.4614 25.0766 9.12659 24.5094 7.91487 24.5094C4.13362 24.4707 3.6051 26.3613 3.6051 27.4957C3.6051 28.6301 4.17229 30.5207 7.99221 30.5207C9.20393 30.5207 16.5387 29.9535 23.4996 29.1586C23.5383 29.1586 23.577 29.1973 23.5383 29.2359C17.9781 33.55 12.418 38.3539 11.5457 39.1832C10.7895 39.9781 10.2223 40.6957 9.99456 41.4133C9.57776 42.509 9.80549 43.609 10.6004 44.3996C11.1289 44.9281 11.7735 45.2332 12.491 45.2332C13.5137 45.2332 14.6481 44.6273 15.8211 43.4543C16.6547 42.6207 21.4586 37.0262 25.8071 31.5391C25.8457 31.5004 25.8844 31.5391 25.8844 31.5777C25.0895 38.5387 24.5223 45.8734 24.5223 47.0852C24.5223 50.9051 26.4129 51.4723 27.5473 51.4723C28.6817 51.4723 30.5723 50.9051 30.5723 47.0852C30.5723 45.8734 30.0051 38.5387 29.2102 31.5777C29.2102 31.5391 29.2489 31.5004 29.2875 31.5391C33.636 37.0219 38.4399 42.6207 39.2735 43.4543C40.4465 44.6273 41.5809 45.2332 42.6035 45.2332C43.3211 45.2332 43.9657 44.9324 44.4942 44.3996C45.2891 43.6047 46.2344 41.8644 43.5489 39.1789C42.7153 38.3453 37.1207 33.5414 31.6336 29.193C31.5949 29.1543 31.6336 29.1156 31.6723 29.1156C38.6332 29.9105 45.968 30.4777 47.1797 30.4777C50.9996 30.4777 51.5668 28.5871 51.5668 27.4527C51.5668 26.3184 50.8836 24.4707 47.0637 24.4707Z" fill="url(#paint0_radial_109_570)"/>
<path opacity="0.3" d="M28.5785 5.30663C28.325 4.68788 27.4054 4.6707 26.5246 5.13906C25.8156 5.51718 25.1625 6.32499 25.6351 6.94374C26.125 7.58398 26.8082 6.74179 27.4398 6.35507C28.0715 5.96835 28.8148 5.87812 28.5785 5.30663ZM13.7457 11.1891C13.4922 10.5703 12.5726 10.5531 11.6918 11.0215C10.9828 11.3996 10.3297 12.2074 10.8023 12.8262C11.2922 13.4664 11.9754 12.6242 12.607 12.2375C13.2429 11.8551 13.982 11.7605 13.7457 11.1891ZM43.4543 11.0601C43.2008 10.4414 42.2812 10.4242 41.4004 10.8926C40.6914 11.2707 40.0383 12.0785 40.5109 12.6973C41.0008 13.3375 41.684 12.4953 42.3156 12.1086C42.9558 11.7262 43.6906 11.6316 43.4543 11.0601Z" fill="white"/>
<defs>
<radialGradient id="paint0_radial_109_570" cx="0" cy="0" r="1" gradientUnits="userSpaceOnUse" gradientTransform="translate(27.586 27.4742) rotate(90) scale(23.998 23.9809)">
<stop stop-color="white"/>
<stop offset="1" stop-color="#4A21EF"/>
</radialGradient>
</defs>
</svg>
