<svg width="39" height="23" viewBox="0 0 39 23" fill="none" xmlns="http://www.w3.org/2000/svg">
<path fill-rule="evenodd" clip-rule="evenodd" d="M37.9988 10.7216C38.2135 10.9363 38.3341 11.2276 38.3341 11.5312C38.3341 11.8349 38.2135 12.1262 37.9988 12.3409L28.2831 22.0565C28.0684 22.2713 27.7772 22.3919 27.4735 22.3919C27.1698 22.3919 26.8786 22.2713 26.6639 22.0565C26.4491 21.8418 26.3285 21.5506 26.3285 21.2469C26.3285 20.9432 26.4491 20.652 26.6639 20.4373L34.425 12.6761L1.56511 12.6777C1.41455 12.6777 1.26547 12.648 1.12638 12.5904C0.987287 12.5328 0.860904 12.4484 0.754447 12.3419C0.647989 12.2355 0.563543 12.1091 0.505928 11.97C0.448314 11.8309 0.41866 11.6818 0.41866 11.5312C0.41866 11.3807 0.448314 11.2316 0.505928 11.0925C0.563543 10.9534 0.647989 10.827 0.754447 10.7206C0.860904 10.6141 0.987287 10.5297 1.12638 10.4721C1.26547 10.4145 1.41455 10.3848 1.56511 10.3848L34.425 10.3864L26.6639 2.62524C26.4491 2.41051 26.3285 2.11928 26.3285 1.8156C26.3285 1.51193 26.4491 1.2207 26.6639 1.00597C26.8786 0.791237 27.1698 0.670603 27.4735 0.670603C27.7772 0.670603 28.0684 0.791236 28.2831 1.00597L37.9988 10.7216Z" fill="#FFF6F6"/>
</svg>
