<svg width="18" height="18" viewBox="0 0 18 18" fill="none" xmlns="http://www.w3.org/2000/svg">
<g clip-path="url(#clip0_117_197)">
<path d="M18 3H0V15.0001H18V3Z" fill="white"/>
<path d="M10.125 2.99988H7.875V7.87485H0V10.1249H7.875V14.9998H10.125V10.1249H18V7.87485H10.125V2.99988Z" fill="#D80027"/>
<path d="M13.844 11.0868L18 13.3957V11.0868H13.844Z" fill="#0052B4"/>
<path d="M10.9565 11.0868L18 14.9998V13.8933L12.9483 11.0868H10.9565Z" fill="#0052B4"/>
<path d="M16.1239 14.9998L10.9565 12.1288V14.9998H16.1239Z" fill="#0052B4"/>
<path d="M10.9565 11.0868L18 14.9998V13.8933L12.9483 11.0868H10.9565Z" fill="white"/>
<path d="M10.9565 11.0868L18 14.9998V13.8933L12.9483 11.0868H10.9565Z" fill="#D80027"/>
<path d="M3.17605 11.0867L0 12.8512V11.0867H3.17605Z" fill="#0052B4"/>
<path d="M7.04344 11.5844V14.9998H0.896118L7.04344 11.5844Z" fill="#0052B4"/>
<path d="M5.05171 11.0868L0 13.8933V14.9998L7.04348 11.0868H5.05171Z" fill="#D80027"/>
<path d="M4.156 6.91293L0 4.604V6.91293H4.156Z" fill="#0052B4"/>
<path d="M7.04348 6.91291L0 2.99988V4.10639L5.05171 6.91291H7.04348Z" fill="#0052B4"/>
<path d="M1.8761 2.99988L7.04344 5.87088V2.99988H1.8761Z" fill="#0052B4"/>
<path d="M7.04348 6.91291L0 2.99988V4.10639L5.05171 6.91291H7.04348Z" fill="white"/>
<path d="M7.04348 6.91291L0 2.99988V4.10639L5.05171 6.91291H7.04348Z" fill="#D80027"/>
<path d="M14.824 6.91299L18 5.1485V6.91299H14.824Z" fill="#0052B4"/>
<path d="M10.9565 6.4154V2.99994H17.1039L10.9565 6.4154Z" fill="#0052B4"/>
<path d="M12.9483 6.91291L18 4.10639V2.99988L10.9565 6.91291H12.9483Z" fill="#D80027"/>
</g>
<defs>
<clipPath id="clip0_117_197">
<rect width="18" height="18" fill="white"/>
</clipPath>
</defs>
</svg>
